HIERARCHY
ROOT Hips
{
 OFFSET 0.000000 0.000000 0.000000
 CHANNELS 6 Xposition Yposition Zposition Yrotation Xrotation Zrotation
 JOINT Chest
 {
  OFFSET 0.000000 9.585900 0.002600
  CHANNELS 3 Yrotation Xrotation Zrotation
  JOINT Chest2
  {
   OFFSET 0.000000 9.601200 -0.005300
   CHANNELS 3 Yrotation Xrotation Zrotation
   JOINT Chest3
   {
    OFFSET 0.000000 9.561800 0.000000
    CHANNELS 3 Yrotation Xrotation Zrotation
    JOINT Chest4
    {
     OFFSET 0.000000 9.552100 0.000000
     CHANNELS 3 Yrotation Xrotation Zrotation
     JOINT Neck
     {
      OFFSET 0.000000 14.453000 0.000000
      CHANNELS 3 Yrotation Xrotation Zrotation
      JOINT Head
      {
       OFFSET 0.000000 8.936500 -0.011300
       CHANNELS 3 Yrotation Xrotation Zrotation
       End Site
       {
        OFFSET 0.000000 17.073600 -0.006000
       }
      }
     }
     JOINT RightCollar
     {
      OFFSET -2.921100 9.558500 0.000000
      CHANNELS 3 Yrotation Xrotation Zrotation
      JOINT RightShoulder
      {
       OFFSET -13.519700 0.000000 0.000000
       CHANNELS 3 Yrotation Xrotation Zrotation
       JOINT RightElbow
       {
        OFFSET 0.000000 -29.696600 0.000000
        CHANNELS 3 Yrotation Xrotation Zrotation
        JOINT RightWrist
        {
         OFFSET 0.000000 -24.004700 0.000000
         CHANNELS 3 Yrotation Xrotation Zrotation
         End Site
         {
          OFFSET 0.000000 -17.728500 0.000000
         }
        }
       }
      }
     }
     JOINT LeftCollar
     {
      OFFSET 2.921100 9.558500 0.000000
      CHANNELS 3 Yrotation Xrotation Zrotation
      JOINT LeftShoulder
      {
       OFFSET 13.519700 0.000000 0.000000
       CHANNELS 3 Yrotation Xrotation Zrotation
       JOINT LeftElbow
       {
        OFFSET 0.000000 -29.696600 0.000000
        CHANNELS 3 Yrotation Xrotation Zrotation
        JOINT LeftWrist
        {
         OFFSET 0.000000 -24.004700 0.000000
         CHANNELS 3 Yrotation Xrotation Zrotation
         End Site
         {
          OFFSET 0.000000 -17.728500 0.000000
         }
        }
       }
      }
     }
    }
   }
  }
 }
 JOINT RightHip
 {
  OFFSET -7.771700 -0.012900 -0.001300
  CHANNELS 3 Yrotation Xrotation Zrotation
  JOINT RightKnee
  {
   OFFSET 0.000000 -40.869800 0.001200
   CHANNELS 3 Yrotation Xrotation Zrotation
   JOINT RightAnkle
   {
    OFFSET 0.000000 -39.717900 0.002100
    CHANNELS 3 Yrotation Xrotation Zrotation
    JOINT RightToe
    {
     OFFSET 0.000000 -4.965400 11.033500
     CHANNELS 3 Yrotation Xrotation Zrotation
     End Site
     {
      OFFSET 0.000000 -1.423100 5.872300
     }
    }
   }
  }
 }
 JOINT LeftHip
 {
  OFFSET 7.771700 -0.012900 -0.001300
  CHANNELS 3 Yrotation Xrotation Zrotation
  JOINT LeftKnee
  {
   OFFSET 0.000000 -40.869800 0.001200
   CHANNELS 3 Yrotation Xrotation Zrotation
   JOINT LeftAnkle
   {
    OFFSET 0.000000 -39.717900 0.002100
    CHANNELS 3 Yrotation Xrotation Zrotation
    JOINT LeftToe
    {
     OFFSET 0.000000 -4.965400 11.033500
     CHANNELS 3 Yrotation Xrotation Zrotation
     End Site
     {
      OFFSET 0.000000 -1.423100 5.872300
     }
    }
   }
  }
 }
}
MOTION
Frames: 6
Frame Time: 0.008333
0.000000 85.388000 0.000000 0.000000 -5.767877 0.000000 0.000000 11.653817 0.000000 0.000000 -5.885947 0.000000 0.000000 -0.000000 0.000000 0.000000 -0.000000 0.000000 0.000000 12.528835 0.000000 0.000000 0.711642 0.000000 0.000000 -0.000000 0.000000 0.000000 0.000000 -90.000000 0.000000 -2.309062 0.000000 0.000000 2.309062 0.000000 0.000000 -0.000000 0.000000 0.000000 -0.000000 90.000000 0.000000 -2.309062 0.000000 0.000000 2.309062 0.000000 0.000000 8.520406 0.000000 0.000000 1.905762 0.000000 -0.000000 -4.658285 0.000000 0.000000 -0.000000 0.000000 0.000000 8.520406 0.000000 0.000000 1.905762 0.000000 -0.000000 -4.658285 0.000000 0.000000 -0.000000 0.000000
-149.136373 49.196831 19.022388 173.658122 -33.693695 -4.422936 0.007018 19.098099 2.014324 -0.026110 2.263197 0.229971 -0.063943 3.730974 0.371386 0.113849 16.544152 1.719576 -0.118502 22.169301 0.485244 -0.304841 5.338592 0.773316 -3.592084 -1.900069 -3.049516 -12.497174 -5.535551 -10.535528 -52.627072 -39.930028 88.752918 -1.858195 -3.969138 -2.886722 -1.873732 -5.010672 2.607229 -3.584769 -5.442933 11.292619 54.820874 -44.847268 -96.679651 9.704939 3.859590 1.025174 -6.057921 -50.420878 -0.524225 -132.175759 81.242478 -120.010133 -30.036917 -4.097698 -2.254784 -0.137725 -11.194686 -1.215849 -14.866145 -52.456322 21.961589 -76.504701 65.783086 -81.179696 30.432056 5.691447 15.391971 0.174307 -0.219710 0.027578
-149.140566 49.184105 19.009936 173.492602 -33.722319 -4.385437 0.014684 19.106158 1.979364 -0.022479 2.266366 0.230341 -0.032093 3.736454 0.379517 0.073543 16.554381 1.708427 -0.010200 22.159029 0.427845 -0.241711 5.309430 0.660014 -3.526046 -1.963212 -2.985404 -12.340901 -5.548159 -10.542343 -52.568070 -39.886600 88.739802 -1.878365 -3.983335 -2.950628 -1.757634 -5.004150 2.593735 -3.533446 -5.398939 11.422405 54.837915 -44.847951 -96.746640 9.721310 3.835656 1.060077 -5.754648 -50.413387 -0.395518 -132.473466 81.269774 -120.365369 -30.028619 -4.243155 -1.862573 -0.121046 -10.951991 -1.467647 -14.926985 -52.375794 22.108294 -76.537176 65.761451 -81.246305 30.416821 5.621785 15.313763 0.212014 -0.171220 0.038400
-149.144454 49.168406 18.997388 173.346174 -33.743080 -4.374195 0.038167 19.104253 1.974165 -0.020419 2.268652 0.230645 -0.028704 3.740003 0.380052 0.065193 16.561482 1.707640 -0.016210 22.129971 0.310072 -0.113610 5.302433 0.564645 -3.473212 -2.015524 -2.941849 -12.200623 -5.561725 -10.528454 -52.496131 -39.830504 88.727238 -1.904424 -4.003252 -3.001919 -1.751787 -4.971759 2.587347 -3.398325 -5.345418 11.549407 54.896050 -44.850466 -96.839464 9.716214 3.835451 1.089540 -5.418266 -50.403301 -0.274392 -132.836031 81.322981 -120.748199 -30.074241 -4.416864 -1.506808 -0.062693 -10.676337 -1.679082 -14.964419 -52.326815 22.233585 -76.616337 65.742742 -81.317295 30.445386 5.544375 15.254114 0.145255 -0.129094 0.047411
-149.146383 49.151334 18.983722 173.232525 -33.767351 -4.400721 0.046337 19.104327 1.988118 -0.019667 2.270532 0.230783 -0.027504 3.742954 0.380299 0.070720 16.567187 1.708509 0.010615 22.117841 0.243015 -0.046938 5.279633 0.436122 -3.429508 -2.057454 -2.899907 -12.066994 -5.581418 -10.508240 -52.411415 -39.768752 88.714778 -1.930959 -4.027441 -3.037329 -1.781029 -4.927835 2.595845 -3.249395 -5.275975 11.662472 54.974161 -44.871187 -96.936831 9.712446 3.837944 1.106250 -5.068881 -50.381414 -0.153641 -133.251361 81.389580 -121.150448 -30.072496 -4.568009 -1.160882 -0.051257 -10.418407 -1.882521 -15.013529 -52.279746 22.372836 -76.746306 65.704135 -81.407615 30.392869 5.503650 15.173479 0.180753 -0.099163 0.059201
-149.147814 49.132676 18.969592 173.157332 -33.790429 -4.453936 0.033396 19.101971 2.011194 -0.020801 2.272547 0.230773 0.024445 3.756396 0.398694 0.004263 16.562990 1.690902 0.085460 22.120760 0.207234 -0.033816 5.242650 0.291417 -3.382898 -2.100518 -2.858374 -11.924905 -5.601497 -10.491674 -52.322425 -39.707966 88.702408 -1.948907 -4.047200 -3.053751 -1.787060 -4.886460 2.611171 -3.126924 -5.187707 11.755685 55.065902 -44.908811 -97.027690 9.706327 3.845018 1.120589 -4.712088 -50.358140 -0.041085 -133.711956 81.462719 -121.576521 -30.026238 -4.688020 -0.833196 -0.085823 -10.187489 -2.067863 -15.099416 -52.232755 22.514873 -76.889468 65.669644 -81.502815 30.282954 5.485392 15.059786 0.286515 -0.075945 0.090798
